<svg width="16" height="15" viewBox="0 0 16 15" fill="none" xmlns="http://www.w3.org/2000/svg">
<path d="M11.0789 7.46092C13.0377 7.46092 14.6274 5.86695 14.6274 3.90294C14.6274 1.93893 13.0377 0.344955 11.0789 0.344955C9.1202 0.344955 7.5305 1.93893 7.5305 3.90294C7.5305 5.86695 9.1202 7.46092 11.0789 7.46092ZM14.9468 11.4459C14.67 11.1612 14.3222 11.0189 13.9177 11.0189H8.94988L7.47372 10.4994L7.70792 9.83054L8.94988 10.3073H10.937C11.1854 10.3073 11.3841 10.2077 11.5473 10.044C11.7106 9.88035 11.7886 9.6811 11.7886 9.46051C11.7886 9.07625 11.6041 8.81296 11.2351 8.66352L6.07563 6.74933H4.69174V13.1537L9.65957 14.5769L15.3584 12.4421C15.3655 12.065 15.2235 11.7305 14.9468 11.4459ZM3.27236 6.74933H0.422241V14.5769H3.27236V6.74933Z" fill="#00C8B4"/>
</svg>
