<svg width="15" height="15" viewBox="0 0 15 15" fill="none" xmlns="http://www.w3.org/2000/svg">
<path d="M8.49871 0.344955V0.359209V1.78454C11.622 2.16938 13.8346 5.01292 13.4504 8.14152C13.1231 10.7356 11.0884 12.7952 8.49871 13.1017V14.527C12.4117 14.135 15.2575 10.6572 14.8662 6.73757C14.546 3.35241 11.8639 0.679908 8.49871 0.344955ZM7.07581 0.366335C5.68848 0.501742 4.36519 1.03624 3.28379 1.9342L4.30116 2.98895C5.09798 2.34755 6.05844 1.9342 7.07581 1.79167V0.366335ZM2.28065 2.93906C1.38422 4.02231 0.850633 5.34074 0.708344 6.73757H2.13124C2.26642 5.72558 2.66483 4.76348 3.29802 3.95817L2.28065 2.93906ZM0.715458 8.1629C0.857748 9.55972 1.40556 10.8782 2.28776 11.9614L3.29802 10.9423C2.67194 10.137 2.26642 9.17488 2.13836 8.1629H0.715458ZM4.30116 11.9899L3.28379 12.9663C4.35808 13.8642 5.68137 14.4272 7.07581 14.5769V13.1516C6.06555 13.0233 5.1051 12.6171 4.30116 11.9899ZM8.14298 3.8869V7.6284L11.3445 9.53122L10.8109 10.4078L7.07581 8.1629V3.8869H8.14298Z" fill="#00C8B4"/>
</svg>
