<svg width="16" height="18" viewBox="0 0 16 18" fill="none" xmlns="http://www.w3.org/2000/svg">
<g clip-path="url(#clip0_1_57)">
<path d="M8.00004 3.61597C4.6667 3.61597 1.82004 5.845 0.666702 8.99144C1.82004 12.1379 4.6667 14.3669 8.00004 14.3669C11.3334 14.3669 14.18 12.1379 15.3334 8.99144C14.18 5.845 11.3334 3.61597 8.00004 3.61597ZM8.00004 12.5751C6.16004 12.5751 4.6667 10.9696 4.6667 8.99144C4.6667 7.01327 6.16004 5.40779 8.00004 5.40779C9.84004 5.40779 11.3334 7.01327 11.3334 8.99144C11.3334 10.9696 9.84004 12.5751 8.00004 12.5751ZM8.00004 6.84125C6.89337 6.84125 6.00004 7.80167 6.00004 8.99144C6.00004 10.1812 6.89337 11.1416 8.00004 11.1416C9.1067 11.1416 10 10.1812 10 8.99144C10 7.80167 9.1067 6.84125 8.00004 6.84125Z" fill="#CCCCCC" fill-opacity="1"/>
</g>
<defs>
<clipPath id="clip0_1_57">
<rect width="16" height="17.2015" fill="white" transform="translate(3.05176e-05 0.390686)"/>
</clipPath>
</defs>
</svg>
