<svg width="25" height="25" viewBox="0 0 25 25" fill="none" xmlns="http://www.w3.org/2000/svg">
<path d="M15.8737 24.439H16.5468C17.2947 24.4377 18.0116 24.1401 18.5405 23.6112C19.0693 23.0824 19.367 22.3654 19.3683 21.6175V7.81104H23.1875C23.6492 7.80978 24.0917 7.62577 24.4182 7.29925C24.7448 6.97274 24.9287 6.53026 24.93 6.06851V3.17067C24.9243 2.37879 24.6255 1.61712 24.0912 1.03261C23.5569 0.448093 22.8251 0.082169 22.0369 0.00547886C21.9815 -0.00182629 21.9253 -0.00182629 21.8698 0.00547886H7.34246C6.53169 0.00547788 5.75405 0.327227 5.18029 0.900086C4.60654 1.47294 4.28357 2.2501 4.28231 3.06087V16.6287H1.7473C1.28389 16.6287 0.839454 16.8128 0.511772 17.1404C0.18409 17.4681 0 17.9126 0 18.376V20.5816C0.00252109 21.6089 0.411747 22.5934 1.13819 23.3199C1.86463 24.0463 2.84918 24.4556 3.87652 24.4581L15.8737 24.439ZM23.4691 3.17067V6.06851C23.4691 6.15081 23.4365 6.22972 23.3783 6.28792C23.3201 6.34611 23.2411 6.37883 23.1588 6.37883H19.3396V3.89633C19.3404 3.25497 19.5893 2.63879 20.0343 2.1769C20.4793 1.71501 21.0857 1.44327 21.7266 1.4186C22.1885 1.42483 22.6295 1.61171 22.9552 1.93922C23.281 2.26672 23.4654 2.70878 23.4691 3.17067ZM5.71452 3.04176C5.71578 2.61083 5.88786 2.198 6.19302 1.89373C6.49818 1.58947 6.91153 1.4186 7.34246 1.4186H18.824C18.2457 2.11497 17.9284 2.99116 17.9265 3.89633V21.6175C17.9252 21.9856 17.7785 22.3382 17.5182 22.5985C17.2579 22.8587 16.9053 23.0055 16.5372 23.0068H15.8737C15.2153 23.0068 14.5838 22.7452 14.1183 22.2797C13.6527 21.8141 13.3912 21.1827 13.3912 20.5243V18.3569C13.3912 17.8934 13.2071 17.449 12.8794 17.1213C12.5517 16.7937 12.1073 16.6096 11.6439 16.6096H5.71452V3.04176ZM1.45131 20.5625V18.3569C1.45254 18.2737 1.48614 18.1943 1.54496 18.1354C1.60379 18.0766 1.68321 18.043 1.76639 18.0418H11.6439C11.7274 18.0418 11.8076 18.075 11.8667 18.1341C11.9258 18.1932 11.959 18.2733 11.959 18.3569V20.51C11.959 21.4152 12.2728 22.2925 12.8469 22.9925H3.89561C3.2502 22.9912 2.63137 22.7353 2.17365 22.2802C1.71593 21.8252 1.45634 21.2079 1.45131 20.5625Z" fill="black" fill-opacity="0.2"/>
<path d="M16.9478 13.1286H7.39975V4.77403C7.39975 4.6422 7.50662 4.53533 7.63845 4.53533H8.11586C8.24769 4.53533 8.35456 4.6422 8.35456 4.77403V12.1738H9.30936V11.4577C9.30936 11.3258 9.41623 11.219 9.54807 11.219H10.9803C11.1121 11.219 11.219 11.3258 11.219 11.4577V12.1738H12.1738V10.9803C12.1738 10.8484 12.2807 10.7416 12.4125 10.7416H13.8447C13.9765 10.7416 14.0834 10.8484 14.0834 10.9803V12.1738H15.0382V11.4577C15.0382 11.3258 15.1451 11.219 15.2769 11.219H16.7091C16.8409 11.219 16.9478 11.3258 16.9478 11.4577V13.1286ZM15.0382 10.0255C15.0382 9.89364 15.1451 9.78677 15.2769 9.78677H16.7091C16.8409 9.78677 16.9478 9.89364 16.9478 10.0255V10.5029C16.9478 10.6347 16.8409 10.7416 16.7091 10.7416H15.2769C15.1451 10.7416 15.0382 10.6347 15.0382 10.5029V10.0255ZM12.1738 6.20624C12.1738 6.07441 12.2807 5.96754 12.4125 5.96754H13.8447C13.9765 5.96754 14.0834 6.07441 14.0834 6.20624V7.16105C14.0834 7.29288 13.9765 7.39975 13.8447 7.39975H12.4125C12.2807 7.39975 12.1738 7.29288 12.1738 7.16105V6.20624ZM14.0834 10.0255C14.0834 10.1573 13.9765 10.2642 13.8447 10.2642H12.4125C12.2807 10.2642 12.1738 10.1573 12.1738 10.0255V8.11586C12.1738 7.98402 12.2807 7.87715 12.4125 7.87715H13.8447C13.9765 7.87715 14.0834 7.98402 14.0834 8.11586V10.0255ZM9.30936 8.11586C9.30936 7.98402 9.41623 7.87715 9.54807 7.87715H10.9803C11.1121 7.87715 11.219 7.98402 11.219 8.11586V8.59326C11.219 8.72509 11.1121 8.83196 10.9803 8.83196H10.6222H10.2642H9.90612H9.54807C9.41623 8.83196 9.30936 8.72509 9.30936 8.59326V8.11586ZM11.219 10.5029C11.219 10.6347 11.1121 10.7416 10.9803 10.7416H9.54807C9.41623 10.7416 9.30936 10.6347 9.30936 10.5029V9.54807C9.30936 9.41623 9.41623 9.30936 9.54807 9.30936H10.9803C11.1121 9.30936 11.219 9.41623 11.219 9.54807V10.5029Z" fill="black" fill-opacity="0.2"/>
</svg>
