<svg width="23" height="27" viewBox="0 0 23 27" fill="none" xmlns="http://www.w3.org/2000/svg">
<path d="M0 17.4271V24.5889C0.00126125 25.1608 0.229037 25.709 0.633484 26.1134C1.03793 26.5179 1.58612 26.7457 2.15809 26.7469H4.25888C4.83086 26.7457 5.37905 26.5179 5.78349 26.1134C6.18794 25.709 6.41572 25.1608 6.41698 24.5889V17.4271C6.41572 16.8551 6.18794 16.3069 5.78349 15.9024C5.37905 15.498 4.83086 15.2702 4.25888 15.269H2.15809C1.58612 15.2702 1.03793 15.498 0.633484 15.9024C0.229037 16.3069 0.00126125 16.8551 0 17.4271ZM1.43236 17.4271C1.43236 17.2346 1.50882 17.05 1.64492 16.9139C1.78102 16.7778 1.96562 16.7013 2.15809 16.7013H4.25888C4.45136 16.7013 4.63595 16.7778 4.77205 16.9139C4.90815 17.05 4.98462 17.2346 4.98462 17.4271V24.5889C4.98462 24.7813 4.90815 24.9659 4.77205 25.102C4.63595 25.2381 4.45136 25.3146 4.25888 25.3146H2.15809C1.96562 25.3146 1.78102 25.2381 1.64492 25.102C1.50882 24.9659 1.43236 24.7813 1.43236 24.5889V17.4271Z" fill="black" fill-opacity="0.2"/>
<path d="M12.1512 12.4042H10.0504C9.47845 12.4055 8.93027 12.6333 8.52582 13.0377C8.12137 13.4422 7.8936 13.9904 7.89233 14.5623V24.5889C7.8936 25.1608 8.12137 25.709 8.52582 26.1135C8.93027 26.5179 9.47845 26.7457 10.0504 26.7469H12.1512C12.7232 26.7457 13.2714 26.5179 13.6758 26.1135C14.0803 25.709 14.3081 25.1608 14.3093 24.5889V14.5623C14.3081 13.9904 14.0803 13.4422 13.6758 13.0377C13.2714 12.6333 12.7232 12.4055 12.1512 12.4042ZM12.8913 24.5697C12.8913 24.7622 12.8148 24.9468 12.6787 25.0829C12.5426 25.219 12.358 25.2955 12.1655 25.2955H10.0647C9.87227 25.2955 9.68768 25.219 9.55158 25.0829C9.41548 24.9468 9.33902 24.7622 9.33902 24.5697V14.5432C9.33902 14.3507 9.41548 14.1662 9.55158 14.0301C9.68768 13.894 9.87227 13.8175 10.0647 13.8175H12.1655C12.2608 13.8175 12.3552 13.8363 12.4433 13.8727C12.5313 13.9092 12.6113 13.9627 12.6787 14.0301C12.7461 14.0975 12.7996 14.1775 12.836 14.2655C12.8725 14.3536 12.8913 14.4479 12.8913 14.5432V24.5697Z" fill="black" fill-opacity="0.2"/>
<path d="M20.0531 10.0171H17.9523C17.3803 10.0184 16.8321 10.2461 16.4277 10.6506C16.0232 11.055 15.7955 11.6032 15.7942 12.1752V24.589C15.7955 25.161 16.0232 25.7091 16.4277 26.1136C16.8321 26.518 17.3803 26.7458 17.9523 26.7471H20.0531C20.625 26.7458 21.1732 26.518 21.5777 26.1136C21.9821 25.7091 22.2099 25.161 22.2112 24.589V12.1752C22.2099 11.6032 21.9821 11.055 21.5777 10.6506C21.1732 10.2461 20.625 10.0184 20.0531 10.0171ZM20.7788 24.5699C20.7788 24.7623 20.7023 24.9469 20.5662 25.083C20.4301 25.2191 20.2455 25.2956 20.0531 25.2956H17.9523C17.7598 25.2956 17.5752 25.2191 17.4391 25.083C17.303 24.9469 17.2266 24.7623 17.2266 24.5699V12.1561C17.2266 11.9636 17.303 11.779 17.4391 11.6429C17.5752 11.5068 17.7598 11.4304 17.9523 11.4304H20.0531C20.2455 11.4304 20.4301 11.5068 20.5662 11.6429C20.7023 11.779 20.7788 11.9636 20.7788 12.1561V24.5699Z" fill="black" fill-opacity="0.2"/>
<path d="M10.2939 4.02015C10.2277 3.95317 10.1489 3.89999 10.062 3.86369C9.97514 3.82739 9.88192 3.8087 9.78777 3.8087C9.69362 3.8087 9.6004 3.82739 9.51352 3.86369C9.42664 3.89999 9.34784 3.95317 9.28167 4.02015L3.3135 9.98832C3.24652 10.0545 3.19334 10.1333 3.15704 10.2202C3.12074 10.307 3.10205 10.4003 3.10205 10.4944C3.10205 10.5886 3.12074 10.6818 3.15704 10.7687C3.19334 10.8555 3.24652 10.9344 3.3135 11.0005C3.44779 11.1346 3.62981 11.21 3.8196 11.21C4.00939 11.21 4.19142 11.1346 4.3257 11.0005L9.78777 5.53845L13.1013 8.85198C13.2356 8.9861 13.4176 9.06142 13.6074 9.06142C13.7972 9.06142 13.9792 8.9861 14.1135 8.85198L20.5305 2.435V5.0037C20.5305 5.19365 20.6059 5.37581 20.7402 5.51012C20.8746 5.64443 21.0567 5.71988 21.2467 5.71988C21.4366 5.71988 21.6188 5.64443 21.7531 5.51012C21.8874 5.37581 21.9628 5.19365 21.9628 5.0037V0.706622C21.9625 0.616517 21.9446 0.527344 21.9103 0.444028C21.8346 0.268343 21.6945 0.128271 21.5188 0.0525129C21.4355 0.0181989 21.3463 0.000370145 21.2562 0H16.9591C16.7692 0 16.587 0.0754503 16.4527 0.20976C16.3184 0.34407 16.2429 0.526238 16.2429 0.71618C16.2429 0.906123 16.3184 1.08829 16.4527 1.2226C16.587 1.35691 16.7692 1.43236 16.9591 1.43236H19.5278L13.6074 7.33368L10.2939 4.02015Z" fill="black" fill-opacity="0.2"/>
<path d="M1.67097 13.3594C1.86085 13.3592 2.04289 13.2837 2.17707 13.1493C2.31054 13.0146 2.38595 12.8329 2.38715 12.6432C2.39209 12.5972 2.39209 12.5508 2.38715 12.5048C2.37727 12.4594 2.36451 12.4148 2.34896 12.3711C2.32955 12.3282 2.30721 12.2867 2.28211 12.2469C2.2545 12.2082 2.22419 12.1715 2.19139 12.1371C2.05423 12.0086 1.87329 11.937 1.68529 11.937C1.4973 11.937 1.31636 12.0086 1.1792 12.1371C1.1464 12.1715 1.11609 12.2082 1.08848 12.2469C1.06338 12.2867 1.04104 12.3282 1.02163 12.3711C1.00608 12.4148 0.99332 12.4594 0.983437 12.5048C0.978503 12.5508 0.978503 12.5972 0.983437 12.6432C0.984449 12.7851 1.02706 12.9237 1.10598 13.0416C1.1849 13.1596 1.29667 13.2518 1.42747 13.3069C1.50512 13.3379 1.58743 13.3557 1.67097 13.3594Z" fill="black" fill-opacity="0.2"/>
</svg>
