<svg width="20" height="11" viewBox="0 0 20 11" fill="none" xmlns="http://www.w3.org/2000/svg">
<path d="M2.32153 7.40885L2.75932 7.46815L6.76077 3.59675C6.60317 3.04611 6.75202 2.41924 7.21608 1.97873C7.89904 1.30949 9.00229 1.30949 9.68525 1.97873C10.1493 2.41924 10.2982 3.04611 10.1406 3.59675L12.3908 5.77388L12.8286 5.71458C12.9862 5.71458 13.1351 5.71458 13.2664 5.77388L16.3923 2.74962C16.331 2.62255 16.331 2.47853 16.331 2.32605C16.331 1.8767 16.5155 1.44576 16.8439 1.12802C17.1723 0.810287 17.6177 0.631784 18.0822 0.631784C18.5466 0.631784 18.992 0.810287 19.3204 1.12802C19.6489 1.44576 19.8334 1.8767 19.8334 2.32605C19.8334 2.7754 19.6489 3.20634 19.3204 3.52408C18.992 3.84181 18.5466 4.02032 18.0822 4.02032C17.9246 4.02032 17.7757 4.02032 17.6444 3.96102L14.5185 6.98528C14.5798 7.11235 14.5798 7.25637 14.5798 7.40885C14.5798 7.8582 14.3953 8.28914 14.0669 8.60688C13.7385 8.92461 13.2931 9.10312 12.8286 9.10312C12.3642 9.10312 11.9188 8.92461 11.5903 8.60688C11.2619 8.28914 11.0774 7.8582 11.0774 7.40885L11.1387 6.98528L8.88846 4.80815C8.60827 4.86745 8.29306 4.86745 8.01287 4.80815L4.01142 8.67955L4.07271 9.10312C4.07271 9.55246 3.88821 9.98341 3.5598 10.3011C3.23139 10.6189 2.78597 10.7974 2.32153 10.7974C1.85708 10.7974 1.41166 10.6189 1.08325 10.3011C0.754842 9.98341 0.570343 9.55246 0.570343 9.10312C0.570343 8.65377 0.754842 8.22283 1.08325 7.90509C1.41166 7.58735 1.85708 7.40885 2.32153 7.40885Z" fill="#4066E2"/>
</svg>
