<svg width="22" height="18" viewBox="0 0 22 18" fill="none" xmlns="http://www.w3.org/2000/svg">
<path d="M3.3784 7.05421L3.3784 4.02718L3.3784 1.00015M3.3784 1.00015L5.75677 3.32863M3.3784 1.00015L1.00002 3.32864" stroke="#FF6262" stroke-linecap="round" stroke-linejoin="round"/>
<path fill-rule="evenodd" clip-rule="evenodd" d="M21.7779 6.91437H5.55646V17.9043H21.7779V6.91437ZM15.5789 10.4666C15.0719 9.95132 14.3842 9.66185 13.6672 9.66185C12.9502 9.66185 12.2625 9.95132 11.7555 10.4666C11.2485 10.9818 10.9636 11.6807 10.9636 12.4093C10.9636 13.138 11.2485 13.8369 11.7555 14.3521C12.2625 14.8674 12.9502 15.1568 13.6672 15.1568C14.3842 15.1568 15.0719 14.8674 15.5789 14.3521C16.0859 13.8369 16.3708 13.138 16.3708 12.4093C16.3708 11.6807 16.0859 10.9818 15.5789 10.4666ZM8.54159 9.2448C8.43894 9.0365 8.33311 8.82173 8.33311 8.62391L18.1732 8.74603C18.1732 9.23181 18.3631 9.6977 18.7011 10.0412C19.0391 10.3847 19.4975 10.5777 19.9755 10.5777V14.241C19.4975 14.241 19.0391 14.434 18.7011 14.7775C18.3631 15.121 18.1732 15.5869 18.1732 16.0727H9.16123C9.16123 15.5869 8.97134 15.121 8.63332 14.7775C8.29531 14.434 7.83687 14.241 7.35884 14.241V10.5777C7.83687 10.5777 8.29531 10.3847 8.63332 10.0412C8.83369 9.83758 8.69101 9.54804 8.54159 9.2448Z" fill="#FF6262"/>
</svg>
