<svg width="19" height="17" viewBox="0 0 19 17" fill="none" xmlns="http://www.w3.org/2000/svg">
<mask id="path-1-inside-1_1_307" fill="white">
<path fill-rule="evenodd" clip-rule="evenodd" d="M3.98309 7.18001V16.4423H18.2836V6.75385H4.41839L3.98309 7.18001ZM12.8187 9.88538C12.3717 9.43114 11.7655 9.17596 11.1333 9.17596C10.5012 9.17596 9.89499 9.43114 9.44801 9.88538C9.00103 10.3396 8.74993 10.9557 8.74993 11.5981C8.74993 12.2405 9.00103 12.8565 9.44801 13.3108C9.89499 13.765 10.5012 14.0202 11.1333 14.0202C11.7655 14.0202 12.3717 13.765 12.8187 13.3108C13.2656 12.8565 13.5168 12.2405 13.5168 11.5981C13.5168 10.9557 13.2656 10.3396 12.8187 9.88538ZM6.61472 8.8083C6.52423 8.62466 6.43093 8.43533 6.43093 8.26093L15.1057 8.36859C15.1057 8.79684 15.2731 9.20756 15.5711 9.51038C15.8691 9.8132 16.2732 9.98333 16.6946 9.98333V13.2128C16.2732 13.2128 15.8691 13.3829 15.5711 13.6858C15.2731 13.9886 15.1057 14.3993 15.1057 14.8276H7.16098C7.16098 14.3993 6.99358 13.9886 6.69559 13.6858C6.39761 13.3829 5.99345 13.2128 5.57204 13.2128V9.98333C5.99345 9.98333 6.39761 9.8132 6.69559 9.51038C6.87223 9.33087 6.74645 9.07562 6.61472 8.8083Z"/>
</mask>
<path fill-rule="evenodd" clip-rule="evenodd" d="M3.98309 7.18001V16.4423H18.2836V6.75385H4.41839L3.98309 7.18001ZM12.8187 9.88538C12.3717 9.43114 11.7655 9.17596 11.1333 9.17596C10.5012 9.17596 9.89499 9.43114 9.44801 9.88538C9.00103 10.3396 8.74993 10.9557 8.74993 11.5981C8.74993 12.2405 9.00103 12.8565 9.44801 13.3108C9.89499 13.765 10.5012 14.0202 11.1333 14.0202C11.7655 14.0202 12.3717 13.765 12.8187 13.3108C13.2656 12.8565 13.5168 12.2405 13.5168 11.5981C13.5168 10.9557 13.2656 10.3396 12.8187 9.88538ZM6.61472 8.8083C6.52423 8.62466 6.43093 8.43533 6.43093 8.26093L15.1057 8.36859C15.1057 8.79684 15.2731 9.20756 15.5711 9.51038C15.8691 9.8132 16.2732 9.98333 16.6946 9.98333V13.2128C16.2732 13.2128 15.8691 13.3829 15.5711 13.6858C15.2731 13.9886 15.1057 14.3993 15.1057 14.8276H7.16098C7.16098 14.3993 6.99358 13.9886 6.69559 13.6858C6.39761 13.3829 5.99345 13.2128 5.57204 13.2128V9.98333C5.99345 9.98333 6.39761 9.8132 6.69559 9.51038C6.87223 9.33087 6.74645 9.07562 6.61472 8.8083Z" fill="#00C8B4"/>
<path d="M3.98309 16.4423H2.98309V17.4423H3.98309V16.4423ZM3.98309 7.18001L3.28352 6.46545L2.98309 6.75958V7.18001H3.98309ZM18.2836 16.4423V17.4423H19.2836V16.4423H18.2836ZM18.2836 6.75385H19.2836V5.75385H18.2836V6.75385ZM4.41839 6.75385V5.75385H4.01038L3.71882 6.03928L4.41839 6.75385ZM9.44801 9.88538L8.73523 9.18399L8.73523 9.18399L9.44801 9.88538ZM9.44801 13.3108L8.73523 14.0122H8.73523L9.44801 13.3108ZM6.43093 8.26093L6.44334 7.26101L5.43093 7.24845V8.26093H6.43093ZM6.61472 8.8083L7.51172 8.36627L7.51172 8.36627L6.61472 8.8083ZM15.1057 8.36859H16.1057V7.38092L15.1181 7.36866L15.1057 8.36859ZM15.5711 9.51038L14.8583 10.2118V10.2118L15.5711 9.51038ZM16.6946 9.98333H17.6946V8.98333H16.6946V9.98333ZM16.6946 13.2128V14.2128H17.6946V13.2128H16.6946ZM15.5711 13.6858L14.8583 12.9844L14.8583 12.9844L15.5711 13.6858ZM15.1057 14.8276V15.8276H16.1057V14.8276H15.1057ZM7.16098 14.8276H6.16098V15.8276H7.16098V14.8276ZM6.69559 13.6858L7.40837 12.9844L7.40837 12.9844L6.69559 13.6858ZM5.57204 13.2128H4.57204V14.2128H5.57204V13.2128ZM5.57204 9.98333V8.98333H4.57204V9.98333H5.57204ZM6.69559 9.51038L5.98281 8.80899L5.98281 8.80899L6.69559 9.51038ZM4.98309 16.4423V7.18001H2.98309V16.4423H4.98309ZM18.2836 15.4423H3.98309V17.4423H18.2836V15.4423ZM17.2836 6.75385V16.4423H19.2836V6.75385H17.2836ZM4.41839 7.75385H18.2836V5.75385H4.41839V7.75385ZM3.71882 6.03928L3.28352 6.46545L4.68266 7.89458L5.11797 7.46841L3.71882 6.03928ZM11.1333 10.176C11.495 10.176 11.8452 10.3218 12.1059 10.5868L13.5314 9.18399C12.8982 8.54048 12.0359 8.17596 11.1333 8.17596V10.176ZM10.1608 10.5868C10.4215 10.3218 10.7717 10.176 11.1333 10.176V8.17596C10.2308 8.17596 9.36846 8.54048 8.73523 9.18399L10.1608 10.5868ZM9.74993 11.5981C9.74993 11.2158 9.89953 10.8523 10.1608 10.5868L8.73523 9.18399C8.10254 9.82695 7.74993 10.6956 7.74993 11.5981H9.74993ZM10.1608 12.6094C9.89953 12.3439 9.74993 11.9804 9.74993 11.5981H7.74993C7.74993 12.5005 8.10254 13.3692 8.73523 14.0122L10.1608 12.6094ZM11.1333 13.0202C10.7717 13.0202 10.4215 12.8743 10.1608 12.6094L8.73523 14.0122C9.36846 14.6557 10.2308 15.0202 11.1333 15.0202V13.0202ZM12.1059 12.6094C11.8452 12.8743 11.495 13.0202 11.1333 13.0202V15.0202C12.0359 15.0202 12.8982 14.6557 13.5314 14.0122L12.1059 12.6094ZM12.5168 11.5981C12.5168 11.9804 12.3672 12.3439 12.1059 12.6094L13.5314 14.0122C14.1641 13.3692 14.5168 12.5005 14.5168 11.5981H12.5168ZM12.1059 10.5868C12.3672 10.8523 12.5168 11.2158 12.5168 11.5981H14.5168C14.5168 10.6956 14.1641 9.82695 13.5314 9.18399L12.1059 10.5868ZM5.43093 8.26093C5.43093 8.51819 5.498 8.73721 5.55291 8.8832C5.60791 9.02945 5.67692 9.16753 5.71772 9.25032L7.51172 8.36627C7.4882 8.31853 7.47068 8.28288 7.45501 8.24909C7.43972 8.21613 7.43049 8.19403 7.42487 8.1791C7.4192 8.16404 7.42003 8.1636 7.42251 8.17462C7.42503 8.18582 7.43093 8.21611 7.43093 8.26093H5.43093ZM15.1181 7.36866L6.44334 7.26101L6.41852 9.26086L15.0933 9.36851L15.1181 7.36866ZM16.2839 8.80899C16.1716 8.6949 16.1057 8.53678 16.1057 8.36859H14.1057C14.1057 9.05691 14.3746 9.72022 14.8583 10.2118L16.2839 8.80899ZM16.6946 8.98333C16.5437 8.98333 16.3956 8.92254 16.2839 8.80899L14.8583 10.2118C15.3426 10.7039 16.0028 10.9833 16.6946 10.9833V8.98333ZM17.6946 13.2128V9.98333H15.6946V13.2128H17.6946ZM16.2839 14.3871C16.3956 14.2736 16.5437 14.2128 16.6946 14.2128V12.2128C16.0028 12.2128 15.3426 12.4923 14.8583 12.9844L16.2839 14.3871ZM16.1057 14.8276C16.1057 14.6594 16.1716 14.5012 16.2839 14.3871L14.8583 12.9844C14.3746 13.4759 14.1057 14.1392 14.1057 14.8276H16.1057ZM7.16098 15.8276H15.1057V13.8276H7.16098V15.8276ZM5.98281 14.3871C6.09508 14.5012 6.16098 14.6594 6.16098 14.8276H8.16098C8.16098 14.1392 7.89207 13.4759 7.40837 12.9844L5.98281 14.3871ZM5.57204 14.2128C5.72299 14.2128 5.87108 14.2736 5.98281 14.3871L7.40837 12.9844C6.92413 12.4923 6.26391 12.2128 5.57204 12.2128V14.2128ZM4.57204 9.98333V13.2128H6.57204V9.98333H4.57204ZM5.98281 8.80899C5.87108 8.92254 5.72299 8.98333 5.57204 8.98333V10.9833C6.26391 10.9833 6.92413 10.7039 7.40837 10.2118L5.98281 8.80899ZM5.71772 9.25032C5.75309 9.32211 5.77335 9.36379 5.78856 9.39931C5.8038 9.43487 5.79942 9.43159 5.79331 9.40327C5.78697 9.37388 5.77123 9.28377 5.79656 9.16078C5.82477 9.02384 5.89291 8.90036 5.98281 8.80899L7.40837 10.2118C7.81091 9.8027 7.81804 9.30442 7.74828 8.98126C7.69104 8.71611 7.56089 8.46605 7.51172 8.36627L5.71772 9.25032Z" fill="#00C8B4" mask="url(#path-1-inside-1_1_307)"/>
<path d="M3.09673 1V3.66856V6.33712M3.09673 6.33712L1 4.28438M3.09673 6.33712L5.19345 4.28438" stroke="#00C8B4" stroke-linecap="round" stroke-linejoin="round"/>
</svg>
