<svg width="12" height="13" viewBox="0 0 12 13" fill="none"
  xmlns="http://www.w3.org/2000/svg">
  <path d="M2.93785 5.71619H6.0357V8.76588H2.93785V5.71619ZM10.3727 11.2056H1.69871V4.49631H10.3727V11.2056ZM10.3727 1.44662H9.75312V0.226746H8.51398V1.44662H3.55742V0.226746H2.31828V1.44662H1.69871C1.01098 1.44662 0.459564 1.99557 0.459564 2.6665V11.2056C0.459564 11.5292 0.590116 11.8394 0.8225 12.0682C1.05488 12.297 1.37006 12.4255 1.69871 12.4255H10.3727C10.7013 12.4255 11.0165 12.297 11.2489 12.0682C11.4813 11.8394 11.6118 11.5292 11.6118 11.2056V2.6665C11.6118 2.34297 11.4813 2.03269 11.2489 1.80392C11.0165 1.57514 10.7013 1.44662 10.3727 1.44662Z" />
</svg>
