<svg width="32" height="28" viewBox="0 0 32 28" fill="none" xmlns="http://www.w3.org/2000/svg">
<path d="M32 8.01162C31.9998 7.81854 31.9242 7.63343 31.7898 7.49698L25.1032 0.699806C24.9839 0.577335 24.8255 0.502229 24.6564 0.487987C24.4874 0.473745 24.319 0.521316 24.1814 0.622137L20.9671 2.95745L16.8023 3.83137L16.5874 3.88963L11.5246 2.48649L8.29596 0.136624C8.1584 0.0358032 7.98995 -0.0117678 7.82095 0.00247438C7.65195 0.0167166 7.49351 0.0918227 7.37416 0.214293L0.209933 7.49698C0.0754784 7.63436 0 7.82026 0 8.01405C0 8.20784 0.0754784 8.39375 0.209933 8.53112L2.98965 11.3519L6.00818 16.1731L5.61653 16.5712C5.1878 17.0081 4.94702 17.6 4.94702 18.2171C4.94702 18.8342 5.1878 19.4261 5.61653 19.863C5.91178 20.16 6.28202 20.3684 6.68639 20.465C6.57184 20.8623 6.56415 21.2835 6.66411 21.6849C6.76407 22.0862 6.96803 22.4529 7.25476 22.7469C7.46732 22.963 7.71978 23.1343 7.99763 23.2509C8.27548 23.3676 8.57326 23.4273 8.87387 23.4266C9.13482 23.4264 9.39363 23.3787 9.63805 23.2859C9.76877 23.774 10.0547 24.2044 10.4513 24.51C10.8478 24.8156 11.3327 24.9793 11.8303 24.9754C12.091 24.972 12.3492 24.9244 12.5945 24.8346C12.6823 25.1605 12.8397 25.4627 13.0555 25.7196C13.2714 25.9765 13.5404 26.1818 13.8433 26.321C14.1461 26.4601 14.4755 26.5295 14.8078 26.5244C15.1402 26.5192 15.4673 26.4396 15.7659 26.2912L16.7784 27.301C17.055 27.5879 17.3999 27.7971 17.7796 27.9086C18.1592 28.02 18.5607 28.0297 18.9452 27.9369C19.3297 27.8441 19.684 27.6519 19.9738 27.3788C20.2636 27.1058 20.4791 26.7612 20.5993 26.3786C20.9663 26.5688 21.377 26.6548 21.788 26.6275C22.1991 26.6002 22.5952 26.4607 22.9347 26.2235C23.2742 25.9863 23.5444 25.6603 23.7167 25.28C23.8891 24.8997 23.9572 24.4791 23.914 24.0627C24.2865 24.024 24.644 23.893 24.9551 23.681C25.2662 23.4691 25.5213 23.1829 25.6981 22.8473C25.875 22.5118 25.9681 22.1372 25.9693 21.7566C25.9705 21.3759 25.8797 21.0008 25.705 20.6641C26.0798 20.5396 26.4167 20.3191 26.6834 20.0239C26.9501 19.7287 27.1376 19.3687 27.2278 18.9786C27.318 18.5884 27.3079 18.1812 27.1985 17.7961C27.089 17.4111 26.8839 17.0611 26.603 16.78L26.4071 16.5809L29.0149 11.3325L31.7851 8.51171C31.9178 8.37964 31.9948 8.20033 32 8.01162ZM7.96163 1.69996L10.1204 3.27302L3.59145 9.90513L1.74307 8.0262L7.96163 1.69996ZM6.38549 18.2074C6.38558 18.0927 6.408 17.9792 6.45144 17.8734C6.49489 17.7675 6.55851 17.6715 6.63863 17.5908L7.27864 16.9402C7.4421 16.7817 7.65931 16.6933 7.88521 16.6933C8.1111 16.6933 8.32832 16.7817 8.49178 16.9402C8.65104 17.1046 8.74031 17.3261 8.74031 17.5568C8.74031 17.7875 8.65104 18.009 8.49178 18.1734L7.85178 18.824C7.73156 18.9457 7.57861 19.0285 7.41219 19.0619C7.24577 19.0954 7.07333 19.0781 6.91657 19.0122C6.7598 18.9463 6.62573 18.8347 6.53123 18.6915C6.43673 18.5483 6.38602 18.3798 6.38549 18.2074ZM8.29596 21.7079C8.13783 21.5429 8.04934 21.3217 8.04934 21.0913C8.04934 20.861 8.13783 20.6397 8.29596 20.4747L10.493 18.2462C10.6571 18.1001 10.8697 18.0229 11.0878 18.0303C11.3058 18.0376 11.513 18.129 11.6672 18.2858C11.8215 18.4426 11.9113 18.6531 11.9186 18.8748C11.9258 19.0964 11.8498 19.3126 11.7061 19.4794L9.5091 21.7079C9.42924 21.7927 9.3334 21.8602 9.22731 21.9065C9.12122 21.9528 9.00705 21.9769 8.8916 21.9773C8.77616 21.9778 8.66181 21.9546 8.55537 21.9091C8.44893 21.8637 8.35258 21.7969 8.27208 21.7128L8.29596 21.7079ZM11.2524 23.2567C11.0931 23.0923 11.0039 22.8708 11.0039 22.6401C11.0039 22.4094 11.0931 22.1879 11.2524 22.0235L13.2106 20.0378C13.3727 19.8785 13.5893 19.7894 13.8148 19.7894C14.0403 19.7894 14.2569 19.8785 14.419 20.0378C14.4994 20.1173 14.5633 20.2124 14.6067 20.3175C14.6502 20.4226 14.6725 20.5355 14.6721 20.6495C14.672 20.7642 14.6496 20.8777 14.6062 20.9835C14.5627 21.0893 14.4991 21.1854 14.419 21.2661L12.4655 23.2567C12.3857 23.3415 12.2898 23.409 12.1838 23.4553C12.0777 23.5015 11.9635 23.5256 11.848 23.5261C11.7326 23.5265 11.6182 23.5034 11.5118 23.4579C11.4054 23.4125 11.309 23.3457 11.2285 23.2616L11.2524 23.2567ZM14.2088 24.8006C14.1284 24.7212 14.0646 24.626 14.0211 24.5209C13.9776 24.4158 13.9554 24.3029 13.9557 24.1889C13.9558 24.0742 13.9782 23.9607 14.0216 23.8549C14.0651 23.749 14.1287 23.653 14.2088 23.5723L14.4906 23.281C14.5682 23.191 14.663 23.1181 14.7694 23.0669C14.8758 23.0157 14.9913 22.9872 15.109 22.9832C15.2266 22.9793 15.3438 22.9999 15.4532 23.0439C15.5627 23.0878 15.6621 23.1541 15.7453 23.2387C15.8286 23.3233 15.8938 23.4244 15.937 23.5357C15.9803 23.6469 16.0006 23.7661 15.9967 23.8856C15.9928 24.0052 15.9648 24.1227 15.9144 24.2308C15.864 24.3389 15.7923 24.4354 15.7038 24.5142L15.422 24.8006C15.3421 24.8854 15.2463 24.9529 15.1402 24.9992C15.0341 25.0455 14.9199 25.0696 14.8045 25.07C14.689 25.0705 14.5747 25.0473 14.4682 25.0018C14.3618 24.9564 14.2655 24.8896 14.185 24.8055L14.2088 24.8006ZM25.6143 19.0813C25.533 19.1647 25.4363 19.2309 25.3297 19.2761C25.2232 19.3212 25.1088 19.3445 24.9934 19.3445C24.8779 19.3445 24.7636 19.3212 24.657 19.2761C24.5505 19.2309 24.4537 19.1647 24.3725 19.0813L20.2554 14.901C20.1893 14.8329 20.1104 14.7789 20.0235 14.7419C19.9366 14.705 19.8434 14.686 19.7492 14.686C19.655 14.686 19.5617 14.705 19.4748 14.7419C19.3879 14.7789 19.3091 14.8329 19.2429 14.901C19.1099 15.0382 19.0353 15.2231 19.0353 15.4157C19.0353 15.6083 19.1099 15.7932 19.2429 15.9303L19.3671 16.0566C19.391 16.0857 19.4005 16.1148 19.4244 16.144L24.3008 21.0962C24.3879 21.1778 24.4579 21.2764 24.5065 21.3862C24.5551 21.4959 24.5814 21.6145 24.5838 21.7349C24.5863 21.8552 24.5647 21.9748 24.5205 22.0865C24.4763 22.1982 24.4104 22.2996 24.3266 22.3847C24.2429 22.4699 24.1431 22.5369 24.0333 22.5818C23.9234 22.6268 23.8057 22.6486 23.6873 22.6462C23.569 22.6437 23.4523 22.617 23.3443 22.5676C23.2363 22.5181 23.1393 22.447 23.059 22.3585L19.8829 19.1347C19.8167 19.0666 19.7379 19.0125 19.651 18.9756C19.5641 18.9387 19.4708 18.9197 19.3766 18.9197C19.2824 18.9197 19.1892 18.9387 19.1023 18.9756C19.0154 19.0125 18.9365 19.0666 18.8704 19.1347C18.7373 19.2719 18.6628 19.4568 18.6628 19.6494C18.6628 19.842 18.7373 20.0268 18.8704 20.164L22.2853 23.6305C22.3724 23.7121 22.4423 23.8108 22.491 23.9205C22.5396 24.0303 22.5659 24.1489 22.5683 24.2692C22.5707 24.3896 22.5492 24.5092 22.505 24.6209C22.4608 24.7325 22.3948 24.834 22.3111 24.9191C22.2274 25.0042 22.1276 25.0713 22.0177 25.1162C21.9079 25.1611 21.7902 25.183 21.6718 25.1806C21.5534 25.1781 21.4367 25.1514 21.3288 25.1019C21.2208 25.0525 21.1238 24.9814 21.0435 24.8929L19.0471 22.8683C18.9809 22.8002 18.9021 22.7461 18.8151 22.7092C18.7282 22.6723 18.635 22.6533 18.5408 22.6533C18.4466 22.6533 18.3534 22.6723 18.2665 22.7092C18.1796 22.7461 18.1007 22.8002 18.0345 22.8683C17.9008 23.011 17.8262 23.2005 17.8262 23.3975C17.8262 23.5946 17.9008 23.7841 18.0345 23.9267L19.071 24.9803C19.2356 25.1483 19.3279 25.376 19.3274 25.6132C19.327 25.8504 19.2339 26.0776 19.0686 26.245C18.9033 26.4124 18.6793 26.5062 18.446 26.5058C18.2126 26.5053 17.9891 26.4106 17.8244 26.2426L16.8978 25.3202C17.1271 25.0313 17.2842 24.6904 17.3558 24.3265C17.4275 23.9626 17.4115 23.5865 17.3092 23.2303C17.2069 22.874 17.0214 22.5482 16.7685 22.2806C16.5155 22.013 16.2027 21.8115 15.8566 21.6934C16.0547 21.3023 16.1393 20.8621 16.1007 20.424C16.0621 19.9859 15.9018 19.568 15.6385 19.2189C15.3752 18.8699 15.0198 18.6041 14.6136 18.4525C14.2075 18.3009 13.7673 18.2698 13.3444 18.3628C13.2721 18.0094 13.1195 17.6782 12.8987 17.3957C12.6779 17.1131 12.3951 16.887 12.0729 16.7355C11.7507 16.584 11.3981 16.5113 11.0433 16.5233C10.6885 16.5352 10.3413 16.6314 10.0297 16.8042C9.92116 16.4701 9.73809 16.1661 9.49477 15.9158C9.19868 15.6164 8.82735 15.4056 8.42135 15.3063C8.01535 15.207 7.59031 15.223 7.19267 15.3526L4.50369 11.0509L11.4625 3.98187L14.4047 4.79753L13.1724 5.34616C12.6715 5.57173 12.2251 5.90589 11.8646 6.32522C11.5041 6.74455 11.2381 7.23892 11.0852 7.77373L9.81478 12.2841C9.67266 12.8487 9.75682 13.4476 10.0488 13.9492C10.3407 14.4508 10.8166 14.8141 11.3718 14.9593C11.9268 15.1044 12.5134 15.0583 13.0398 14.8281C13.5661 14.5979 14.0025 14.1966 14.2805 13.6873L15.9474 10.6431L18.5074 10.5946L25.022 17.2121L25.5809 17.7801C25.6689 17.8634 25.7393 17.9641 25.7878 18.076C25.8362 18.188 25.8617 18.3088 25.8626 18.4311C25.8634 18.5533 25.8398 18.6745 25.793 18.7872C25.7462 18.8998 25.6772 19.0015 25.5904 19.0862L25.6143 19.0813ZM25.3659 15.5031L19.305 9.37591C19.1708 9.2393 18.9887 9.16245 18.7987 9.16228L15.5223 9.23026C15.397 9.23237 15.2745 9.26804 15.1672 9.33368C15.0598 9.39933 14.9714 9.49262 14.9109 9.60412L13.0435 13.0027C12.9195 13.2305 12.7248 13.4103 12.4898 13.5139C12.2548 13.6175 11.9927 13.6392 11.7443 13.5756C11.6508 13.5512 11.563 13.5081 11.4859 13.4489C11.4089 13.3898 11.3441 13.3156 11.2954 13.2309C11.1981 13.0697 11.1672 12.8761 11.2094 12.692L12.4751 8.20098C12.5691 7.86593 12.7342 7.55586 12.9586 7.29251C13.183 7.02916 13.4614 6.81888 13.7742 6.67646L16.3724 5.49181C16.6084 5.38571 16.855 5.30594 17.108 5.25391L21.0101 4.4334L27.5486 11.0801L25.3659 15.5031ZM28.437 9.89055L22.3617 3.74398L24.5205 2.17092L30.2519 7.99707L28.437 9.89055Z" fill="black" fill-opacity="0.2"/>
</svg>
