<svg width="24" height="26" viewBox="0 0 24 26" fill="none" xmlns="http://www.w3.org/2000/svg">
<path d="M9.07159 0C7.98563 0 6.92406 0.32203 6.02112 0.925358C5.11817 1.52869 4.41441 2.3862 3.99883 3.3895C3.58325 4.3928 3.47452 5.4968 3.68638 6.5619C3.89824 7.62699 4.42118 8.60534 5.18907 9.37323C5.95696 10.1411 6.93531 10.6641 8.0004 10.8759C9.0655 11.0878 10.1695 10.9791 11.1728 10.5635C12.1761 10.1479 13.0336 9.44413 13.637 8.54119C14.2403 7.63824 14.5623 6.57668 14.5623 5.49072C14.561 4.03488 13.9822 2.63903 12.9527 1.6096C11.9233 0.580164 10.5274 0.0012643 9.07159 0ZM9.07159 9.54907C8.26893 9.54907 7.48428 9.31106 6.81689 8.86512C6.1495 8.41918 5.62933 7.78535 5.32216 7.04378C5.01499 6.30221 4.93463 5.48622 5.09122 4.69897C5.24781 3.91173 5.63433 3.18858 6.2019 2.62101C6.76947 2.05344 7.49261 1.66694 8.27985 1.51034C9.06709 1.35375 9.88309 1.43412 10.6247 1.74129C11.3662 2.04846 12.0001 2.56862 12.446 3.23601C12.8919 3.90341 13.1299 4.68805 13.1299 5.49072C13.1287 6.56667 12.7007 7.59821 11.9399 8.35902C11.1791 9.11984 10.1475 9.54781 9.07159 9.54907Z" fill="black" fill-opacity="0.2"/>
<path d="M12.9724 23.3475C9.00477 24.1783 3.9008 23.5958 2.0817 22.1061C1.89224 21.9828 1.73464 21.8165 1.62178 21.6207C1.50892 21.4248 1.44401 21.2051 1.43236 20.9793C1.43236 18.9533 2.23721 17.0102 3.66985 15.5775C5.10249 14.1449 7.04556 13.3401 9.07162 13.3401C10.7253 13.3352 12.3351 13.8718 13.6552 14.8679C13.7304 14.9244 13.816 14.9654 13.9071 14.9887C13.9982 15.0121 14.0931 15.0173 14.1862 15.004C14.2793 14.9907 14.3688 14.9591 14.4498 14.9112C14.5307 14.8633 14.6014 14.7999 14.6578 14.7247C14.7143 14.6495 14.7553 14.5638 14.7787 14.4727C14.802 14.3816 14.8072 14.2868 14.7939 14.1937C14.7806 14.1006 14.7491 14.011 14.7011 13.9301C14.6532 13.8492 14.5898 13.7785 14.5146 13.722C12.9474 12.5384 11.0355 11.9011 9.07162 11.9077C6.66568 11.9077 4.35827 12.8634 2.65702 14.5647C0.955757 16.266 0 18.5734 0 20.9793C0.0119448 21.418 0.124498 21.848 0.328971 22.2363C0.533443 22.6245 0.82437 22.9606 1.17931 23.2186C2.82653 24.5602 5.95384 25.1618 9.02387 25.1618C10.4474 25.1682 11.8678 25.0306 13.2637 24.7512C13.4498 24.7126 13.613 24.6016 13.7173 24.4427C13.8216 24.2837 13.8585 24.0899 13.8199 23.9037C13.7813 23.7176 13.6703 23.5544 13.5114 23.4501C13.3524 23.3458 13.1586 23.3089 12.9724 23.3475Z" fill="black" fill-opacity="0.2"/>
<path d="M23.1565 19.0983H22.2923C22.195 18.6086 22.0019 18.1429 21.7241 17.728L22.3352 17.1121C22.4056 17.0465 22.462 16.9675 22.5012 16.8796C22.5403 16.7918 22.5614 16.6969 22.5631 16.6008C22.5648 16.5046 22.5471 16.4091 22.5111 16.3199C22.475 16.2307 22.4214 16.1497 22.3534 16.0817C22.2854 16.0137 22.2044 15.9601 22.1152 15.9241C22.026 15.8881 21.9305 15.8704 21.8344 15.8721C21.7382 15.8738 21.6434 15.8948 21.5555 15.934C21.4677 15.9731 21.3886 16.0295 21.323 16.0999L20.7071 16.711C20.2922 16.4333 19.8265 16.2402 19.3368 16.1429V15.2787C19.3368 15.0887 19.2614 14.9066 19.1271 14.7723C18.9927 14.638 18.8106 14.5625 18.6206 14.5625C18.4307 14.5625 18.2485 14.638 18.1142 14.7723C17.9799 14.9066 17.9045 15.0887 17.9045 15.2787V16.1429C17.4147 16.2402 16.9491 16.4333 16.5342 16.711L15.9183 16.0999C15.8527 16.0295 15.7736 15.9731 15.6858 15.934C15.5979 15.8948 15.5031 15.8738 15.4069 15.8721C15.3108 15.8704 15.2152 15.8881 15.1261 15.9241C15.0369 15.9601 14.9559 16.0137 14.8879 16.0817C14.8199 16.1497 14.7663 16.2307 14.7302 16.3199C14.6942 16.4091 14.6765 16.5046 14.6782 16.6008C14.6799 16.6969 14.701 16.7918 14.7401 16.8796C14.7793 16.9675 14.8357 17.0465 14.9061 17.1121L15.5172 17.728C15.2394 18.1429 15.0463 18.6086 14.949 19.0983H14.0848C13.8949 19.0983 13.7127 19.1738 13.5784 19.3081C13.4441 19.4424 13.3687 19.6245 13.3687 19.8145C13.3687 20.0044 13.4441 20.1866 13.5784 20.3209C13.7127 20.4552 13.8949 20.5307 14.0848 20.5307H14.949C15.0463 21.0204 15.2394 21.4861 15.5172 21.901L14.9061 22.5169C14.7731 22.6518 14.6986 22.8336 14.6986 23.023C14.6986 23.2124 14.7731 23.3942 14.9061 23.5291C15.0411 23.6621 15.2226 23.7374 15.4122 23.7391C15.5062 23.7393 15.5994 23.7209 15.6862 23.6848C15.7731 23.6487 15.852 23.5958 15.9183 23.5291L16.5342 22.9179C16.9491 23.1957 17.4147 23.3888 17.9045 23.4861V24.3503C17.9045 24.5402 17.9799 24.7224 18.1142 24.8567C18.2485 24.991 18.4307 25.0665 18.6206 25.0665C18.8106 25.0665 18.9927 24.991 19.1271 24.8567C19.2614 24.7224 19.3368 24.5402 19.3368 24.3503V23.4861C19.8265 23.3888 20.2922 23.1957 20.7071 22.9179L21.323 23.5291C21.3893 23.5958 21.4682 23.6487 21.555 23.6848C21.6419 23.7209 21.7351 23.7393 21.8291 23.7391C22.0187 23.7374 22.2002 23.6621 22.3352 23.5291C22.4682 23.3942 22.5427 23.2124 22.5427 23.023C22.5427 22.8336 22.4682 22.6518 22.3352 22.5169L21.7241 21.901C22.0019 21.4861 22.195 21.0204 22.2923 20.5307H23.1565C23.3464 20.5307 23.5286 20.4552 23.6629 20.3209C23.7972 20.1866 23.8726 20.0044 23.8726 19.8145C23.8726 19.6245 23.7972 19.4424 23.6629 19.3081C23.5286 19.1738 23.3464 19.0983 23.1565 19.0983ZM18.6206 22.1206C18.1645 22.1206 17.7187 21.9853 17.3394 21.7319C16.9602 21.4785 16.6646 21.1184 16.4901 20.697C16.3155 20.2756 16.2699 19.8119 16.3588 19.3646C16.4478 18.9173 16.6675 18.5063 16.99 18.1838C17.3125 17.8613 17.7234 17.6417 18.1707 17.5527C18.6181 17.4637 19.0818 17.5094 19.5031 17.6839C19.9245 17.8585 20.2847 18.154 20.5381 18.5333C20.7915 18.9125 20.9267 19.3584 20.9267 19.8145C20.9267 20.4261 20.6838 21.0127 20.2513 21.4452C19.8188 21.8776 19.2323 22.1206 18.6206 22.1206Z" fill="black" fill-opacity="0.2"/>
</svg>
