<svg width="12" height="13" viewBox="0 0 12 13" fill="none" xmlns="http://www.w3.org/2000/svg">
<path d="M4.05629 5.71619V6.93607H2.81715V5.71619H4.05629ZM6.53456 5.71619V6.93607H5.29542V5.71619H6.53456ZM9.01284 5.71619V6.93607H7.7737V5.71619H9.01284ZM10.252 1.44662C10.5806 1.44662 10.8958 1.57514 11.1282 1.80392C11.3606 2.03269 11.4911 2.34297 11.4911 2.6665V11.2056C11.4911 11.5292 11.3606 11.8394 11.1282 12.0682C10.8958 12.297 10.5806 12.4255 10.252 12.4255H1.57801C0.890284 12.4255 0.338867 11.8766 0.338867 11.2056V2.6665C0.338867 2.34297 0.469419 2.03269 0.701803 1.80392C0.934186 1.57514 1.24937 1.44662 1.57801 1.44662H2.19758V0.226746H3.43672V1.44662H8.39327V0.226746H9.63241V1.44662H10.252ZM10.252 11.2056V4.49631H1.57801V11.2056H10.252ZM4.05629 8.15594V9.37582H2.81715V8.15594H4.05629ZM6.53456 8.15594V9.37582H5.29542V8.15594H6.53456ZM9.01284 8.15594V9.37582H7.7737V8.15594H9.01284Z" fill="#4066E2"/>
</svg>
