<svg width="17" height="13" viewBox="0 0 17 13" fill="none" xmlns="http://www.w3.org/2000/svg">
<path d="M3.3951 0.622818H16.6672V9.77189H3.3951V0.622818ZM10.0312 2.91009C10.6178 2.91009 11.1805 3.15107 11.5953 3.58001C12.0101 4.00896 12.2432 4.59073 12.2432 5.19735C12.2432 5.80398 12.0101 6.38575 11.5953 6.8147C11.1805 7.24364 10.6178 7.48462 10.0312 7.48462C9.4445 7.48462 8.88186 7.24364 8.46703 6.8147C8.05219 6.38575 7.81914 5.80398 7.81914 5.19735C7.81914 4.59073 8.05219 4.00896 8.46703 3.58001C8.88186 3.15107 9.4445 2.91009 10.0312 2.91009ZM6.34446 2.14766C6.34446 2.55208 6.18909 2.93993 5.91254 3.22589C5.63598 3.51186 5.26089 3.67251 4.86978 3.67251V6.7222C5.26089 6.7222 5.63598 6.88285 5.91254 7.16882C6.18909 7.45478 6.34446 7.84263 6.34446 8.24705H13.7179C13.7179 7.84263 13.8732 7.45478 14.1498 7.16882C14.4263 6.88285 14.8014 6.7222 15.1925 6.7222V3.67251C14.8014 3.67251 14.4263 3.51186 14.1498 3.22589C13.8732 2.93993 13.7179 2.55208 13.7179 2.14766H6.34446ZM0.44574 3.67251H1.92042V11.2967H13.7179V12.8216H0.44574V3.67251Z" fill="#4066E2"/>
</svg>
