<svg width="13" height="13" viewBox="0 0 13 13" fill="none"
  xmlns="http://www.w3.org/2000/svg">
  <path d="M4.61662 5.71619H3.37748V6.93607H4.61662V5.71619ZM7.09491 5.71619H5.85576V6.93607H7.09491V5.71619ZM9.57319 5.71619H8.33405V6.93607H9.57319V5.71619ZM10.8123 1.44662H10.1928V0.226746H8.95362V1.44662H3.99705V0.226746H2.75791V1.44662H2.13834C1.45062 1.44662 0.8992 1.99557 0.8992 2.6665V11.2056C0.8992 11.5292 1.02975 11.8394 1.26214 12.0682C1.49452 12.297 1.8097 12.4255 2.13834 12.4255H10.8123C11.141 12.4255 11.4561 12.297 11.6885 12.0682C11.9209 11.8394 12.0515 11.5292 12.0515 11.2056V2.6665C12.0515 2.34297 11.9209 2.03269 11.6885 1.80392C11.4561 1.57514 11.141 1.44662 10.8123 1.44662ZM10.8123 11.2056H2.13834V4.49631H10.8123V11.2056Z" />
</svg>
