<svg width="26" height="23" viewBox="0 0 26 23" fill="none" xmlns="http://www.w3.org/2000/svg">
<path d="M0 19.0265C0.0012631 19.9315 0.361334 20.7991 1.00127 21.439C1.64121 22.079 2.50878 22.4391 3.41379 22.4403H20.4589C21.3639 22.4391 22.2315 22.079 22.8714 21.439C23.5113 20.7991 23.8714 19.9315 23.8727 19.0265V16.8589C24.4403 16.5863 24.9194 16.1588 25.2547 15.6258C25.59 15.0928 25.7679 14.4759 25.7679 13.8462C25.7679 13.2164 25.59 12.5995 25.2547 12.0665C24.9194 11.5335 24.4403 11.106 23.8727 10.8334V8.66579C23.8719 8.02821 23.6926 7.40357 23.3551 6.86267C23.0175 6.32176 22.5352 5.88619 21.9629 5.6053V3.34218C21.9629 2.45578 21.6107 1.60567 20.984 0.978891C20.3572 0.352111 19.5071 0 18.6207 0H3.34218C2.45578 0 1.60568 0.352111 0.978898 0.978891C0.352118 1.60567 0 2.45578 0 3.34218V19.0265ZM22.4403 15.756H17.1883C16.6818 15.756 16.196 15.5548 15.8379 15.1966C15.4797 14.8384 15.2785 14.3527 15.2785 13.8462C15.2785 13.3396 15.4797 12.8539 15.8379 12.4957C16.196 12.1376 16.6818 11.9363 17.1883 11.9363H22.4403C22.9468 11.9363 23.4326 12.1376 23.7908 12.4957C24.1489 12.8539 24.3501 13.3396 24.3501 13.8462C24.3501 14.3527 24.1489 14.8384 23.7908 15.1966C23.4326 15.5548 22.9468 15.756 22.4403 15.756ZM22.4403 10.504H17.1883C16.3019 10.504 15.4518 10.8561 14.8251 11.4829C14.1983 12.1096 13.8462 12.9598 13.8462 13.8462C13.8462 14.7326 14.1983 15.5827 14.8251 16.2094C15.4518 16.8362 16.3019 17.1883 17.1883 17.1883H22.4403V19.0265C22.4403 19.2867 22.3891 19.5444 22.2895 19.7848C22.1899 20.0252 22.044 20.2436 21.86 20.4276C21.676 20.6116 21.4575 20.7575 21.2171 20.8571C20.9767 20.9567 20.7191 21.008 20.4589 21.008H3.41379C2.88828 21.008 2.3843 20.7992 2.01271 20.4276C1.64111 20.056 1.43236 19.552 1.43236 19.0265V6.08275C1.55202 6.1633 1.67638 6.23665 1.80477 6.30239L1.89549 6.34535C2.0183 6.40322 2.14422 6.45423 2.27268 6.49814H2.31565C2.45723 6.54546 2.60258 6.58061 2.75013 6.60319H2.85995C3.01779 6.62893 3.17748 6.64168 3.3374 6.64137H20.4541C20.9796 6.64137 21.4836 6.85013 21.8552 7.22172C22.2268 7.59331 22.4355 8.0973 22.4355 8.62281L22.4403 10.504ZM3.34218 1.43236H18.6207C19.1272 1.43236 19.613 1.63357 19.9711 1.99173C20.3293 2.34989 20.5305 2.83566 20.5305 3.34218V5.25199H3.34218C2.83566 5.25199 2.34989 5.05078 1.99173 4.69262C1.63357 4.33446 1.43236 3.84869 1.43236 3.34218C1.43236 2.83566 1.63357 2.34989 1.99173 1.99173C2.34989 1.63357 2.83566 1.43236 3.34218 1.43236Z" fill="black" fill-opacity="0.8"/>
</svg>
