<svg width="200" height="62" viewBox="0 0 200 62" fill="none" xmlns="http://www.w3.org/2000/svg">
<path d="M97.9372 35.4275C98.3378 35.4271 98.723 35.5816 99.0124 35.8587C99.3017 36.1357 99.4728 36.5139 99.4898 36.9141L99.515 37.5177C100.893 35.8952 102.752 35.084 105.093 35.084C107.723 35.084 109.513 36.0919 110.463 38.1076C111.095 37.198 111.931 36.4485 112.904 35.9185C113.998 35.3411 115.221 35.0538 116.458 35.084C120.582 35.084 122.679 37.268 122.748 41.6359V52.6826C122.748 53.0943 122.584 53.4893 122.293 53.7804C122.002 54.0716 121.607 54.2352 121.195 54.2352H121.082C120.671 54.2352 120.276 54.0716 119.985 53.7804C119.693 53.4893 119.53 53.0943 119.53 52.6826V41.8144C119.53 40.4702 119.223 39.4655 118.608 38.8005C117.993 38.1355 116.962 37.8023 115.514 37.801C114.323 37.801 113.333 38.1575 112.545 38.8704C111.757 39.5833 111.299 40.542 111.171 41.7465V52.669C111.171 53.0808 111.008 53.4757 110.716 53.7668C110.425 54.058 110.03 54.2216 109.618 54.2216H109.49C109.079 54.2216 108.684 54.058 108.393 53.7668C108.101 53.4757 107.938 53.0808 107.938 52.669V41.8998C107.938 39.1634 106.599 37.7958 103.92 37.7971C101.949 37.7971 100.559 38.5831 99.7518 40.1551C99.6448 40.3743 99.5909 40.6157 99.5946 40.8596V52.6671C99.5946 53.0788 99.431 53.4737 99.1398 53.7649C98.8487 54.0561 98.4538 54.2197 98.042 54.2197H97.9314C97.5196 54.2197 97.1247 54.0561 96.8335 53.7649C96.5424 53.4737 96.3788 53.0788 96.3788 52.6671V36.9684C96.3788 36.5567 96.5424 36.1618 96.8335 35.8706C97.1247 35.5794 97.5196 35.4158 97.9314 35.4158" fill="white"/>
<path d="M126.744 44.6479C126.716 42.9302 127.087 41.2294 127.829 39.6796C128.49 38.2783 129.54 37.0957 130.852 36.2717C132.182 35.4614 133.714 35.0461 135.271 35.0743C137.832 35.0743 139.902 35.9605 141.482 37.7331C143.061 39.5056 143.851 41.8617 143.851 44.8012V45.0264C143.88 46.7273 143.521 48.4124 142.801 49.9539C142.148 51.3522 141.104 52.5317 139.795 53.3502C138.444 54.1745 136.885 54.5966 135.302 54.567C132.755 54.567 130.69 53.6807 129.107 51.9082C127.525 50.1357 126.735 47.7893 126.736 44.8692L126.744 44.6479ZM129.977 45.0361C129.977 47.123 130.46 48.7972 131.427 50.0587C131.873 50.6643 132.459 51.153 133.135 51.4829C133.811 51.8127 134.556 51.974 135.308 51.9529C136.942 51.9529 138.24 51.3124 139.201 50.0315C140.163 48.7506 140.642 46.958 140.639 44.6537C140.639 42.5927 140.15 40.9217 139.17 39.6408C138.716 39.0463 138.132 38.564 137.462 38.2313C136.792 37.8986 136.055 37.7242 135.307 37.7218C134.559 37.7194 133.82 37.8889 133.148 38.2172C132.476 38.5456 131.888 39.024 131.431 39.6156C130.459 40.8771 129.972 42.6845 129.971 45.038" fill="white"/>
<path d="M149.446 35.4275C149.847 35.4271 150.232 35.5813 150.521 35.8579C150.81 36.1346 150.981 36.5123 150.999 36.9121L151.038 37.7894C152.473 35.978 154.349 35.0723 156.666 35.0723C160.639 35.0723 162.645 37.3152 162.682 41.8009V52.669C162.682 53.0808 162.519 53.4757 162.227 53.7668C161.936 54.058 161.541 54.2216 161.13 54.2216H161.023C160.611 54.2216 160.216 54.058 159.925 53.7668C159.634 53.4757 159.47 53.0808 159.47 52.669V41.7814C159.459 40.4242 159.148 39.4222 158.539 38.7752C157.929 38.1283 156.983 37.8049 155.699 37.8049C154.719 37.7871 153.758 38.0791 152.953 38.6394C152.272 39.1209 151.705 39.748 151.296 40.4753C151.167 40.7047 151.1 40.9635 151.102 41.2264V52.6768C151.102 53.0885 150.938 53.4834 150.647 53.7746C150.356 54.0658 149.961 54.2293 149.549 54.2293H149.441C149.029 54.2293 148.634 54.0658 148.343 53.7746C148.052 53.4834 147.888 53.0885 147.888 52.6768V36.9801C147.888 36.5683 148.052 36.1734 148.343 35.8822C148.634 35.5911 149.029 35.4275 149.441 35.4275" fill="white"/>
<path d="M175.332 54.5669C172.782 54.5669 170.708 53.7305 169.11 52.0576C167.512 50.3847 166.712 48.1457 166.711 45.3407V44.7429C166.681 43.0179 167.047 41.309 167.78 39.7475C168.441 38.3465 169.479 37.1571 170.777 36.3124C172.012 35.4968 173.46 35.0646 174.94 35.0703C177.383 35.0703 179.282 35.8738 180.638 37.4807C181.994 39.0876 182.672 41.3932 182.672 44.3975V45.7366H169.931C169.977 47.588 170.519 49.085 171.557 50.2275C172.051 50.7833 172.662 51.224 173.345 51.5188C174.028 51.8135 174.767 51.955 175.51 51.9334C176.646 51.9334 177.608 51.7018 178.394 51.2386C178.888 50.9451 179.344 50.5926 179.753 50.1886C179.96 49.9814 180.236 49.8568 180.528 49.8382C180.821 49.8196 181.11 49.9083 181.342 50.0877L181.468 50.1886C181.595 50.2873 181.701 50.4098 181.78 50.5493C181.859 50.6888 181.91 50.8425 181.929 51.0017C181.949 51.1608 181.937 51.3222 181.894 51.4768C181.851 51.6313 181.779 51.7759 181.68 51.9023L181.639 51.9528C180.098 53.6917 177.994 54.5605 175.328 54.5592L175.332 54.5669ZM175.475 37.7291C174.853 37.6597 174.223 37.7186 173.624 37.9022C173.025 38.0858 172.47 38.3902 171.994 38.7965C170.915 39.7514 170.259 41.1823 170.028 43.0894H179.446V42.8468C179.353 41.2127 178.912 39.9474 178.125 39.0507C177.45 38.2785 176.498 37.8036 175.475 37.7291Z" fill="white"/>
<path d="M196.338 36.5453C196.395 36.3414 196.491 36.1506 196.621 35.9839C196.752 35.8172 196.914 35.6778 197.098 35.5736C197.282 35.4695 197.485 35.4026 197.695 35.3768C197.905 35.3511 198.118 35.3669 198.322 35.4235C198.526 35.4801 198.716 35.5763 198.883 35.7066C199.05 35.8369 199.189 35.9987 199.293 36.1829C199.398 36.3671 199.464 36.57 199.49 36.78C199.516 36.99 199.5 37.2031 199.444 37.407C199.43 37.4555 199.414 37.504 199.397 37.5506L192.575 57.121C191.411 60.2494 189.552 61.8137 186.998 61.8137L186.388 61.7613L185.191 61.5362V58.9297L186.058 58.9996C187.146 58.9996 187.995 58.7797 188.604 58.3398C189.214 57.8999 189.716 57.0938 190.111 55.9216L190.613 54.5631C190.743 54.2065 190.743 53.8154 190.613 53.4588L184.882 37.5622C184.811 37.3636 184.779 37.1528 184.79 36.942C184.8 36.7312 184.852 36.5245 184.942 36.3336C185.032 36.1427 185.159 35.9715 185.315 35.8297C185.471 35.6878 185.654 35.5782 185.853 35.507C186.025 35.4461 186.206 35.4146 186.388 35.4138H186.456C186.793 35.413 187.122 35.5183 187.396 35.7148C187.669 35.9113 187.874 36.1889 187.982 36.5084L192.309 49.5113L196.338 36.5453Z" fill="white"/>
<path d="M36.4546 35.4271C36.116 35.4272 35.787 35.5402 35.5199 35.7483C35.2527 35.9564 35.0626 36.2477 34.9797 36.576L31.6804 49.6876C31.6774 49.6954 31.6714 49.7018 31.6639 49.7054C31.6563 49.709 31.6476 49.7096 31.6397 49.7071C31.6349 49.706 31.6305 49.7037 31.6271 49.7002C31.6236 49.6968 31.6213 49.6924 31.6203 49.6876L27.5195 36.4906C27.4232 36.1805 27.2302 35.9093 26.9686 35.7168C26.707 35.5244 26.3906 35.4208 26.0659 35.4213H25.7165C25.3924 35.4214 25.0768 35.525 24.8157 35.717C24.5546 35.909 24.3616 36.1794 24.2649 36.4887L20.2475 49.3888C20.2466 49.3929 20.2449 49.3968 20.2424 49.4003C20.2399 49.4037 20.2368 49.4066 20.2332 49.4088C20.2295 49.411 20.2255 49.4124 20.2213 49.413C20.2171 49.4135 20.2128 49.4132 20.2087 49.4121C20.2029 49.411 20.1976 49.4082 20.1935 49.404C20.1893 49.3999 20.1865 49.3946 20.1854 49.3888L16.8163 36.5547C16.7085 36.1658 16.4506 35.8357 16.0994 35.637C15.7481 35.4383 15.3324 35.3872 14.9435 35.495C14.5546 35.6029 14.2245 35.8608 14.0258 36.212C13.8271 36.5632 13.776 36.979 13.8839 37.3678L18.4582 53.1286C18.5504 53.4456 18.7432 53.724 19.0075 53.9218C19.2718 54.1195 19.5933 54.226 19.9234 54.2251H20.2689C20.593 54.225 20.9086 54.1214 21.1697 53.9294C21.4308 53.7374 21.6238 53.467 21.7205 53.1577L25.8039 40.0674C25.8049 40.0632 25.8069 40.0593 25.8096 40.0559C25.8123 40.0525 25.8157 40.0497 25.8195 40.0477C25.8233 40.0457 25.8276 40.0445 25.8319 40.0442C25.8362 40.0439 25.8405 40.0446 25.8446 40.0461C25.8494 40.048 25.8538 40.0509 25.8574 40.0546C25.8611 40.0582 25.864 40.0626 25.866 40.0674L30.0735 53.1635C30.1718 53.4702 30.365 53.7377 30.6252 53.9275C30.8854 54.1172 31.1992 54.2194 31.5213 54.2193H31.8764C32.2054 54.2194 32.5255 54.1127 32.7887 53.9153C33.0518 53.718 33.2439 53.4405 33.3359 53.1247L37.9199 37.3678C37.9757 37.1761 37.9932 36.9752 37.9713 36.7766C37.9495 36.5781 37.8887 36.3858 37.7924 36.2108C37.6961 36.0357 37.5663 35.8814 37.4104 35.7566C37.2544 35.6318 37.0754 35.5389 36.8835 35.4834C36.7455 35.4429 36.6023 35.4227 36.4585 35.4232" fill="white"/>
<path d="M43.6354 35.4274C43.2092 35.4274 42.8005 35.5967 42.4991 35.8981C42.1978 36.1994 42.0285 36.6082 42.0285 37.0344V52.6224C42.0285 53.0485 42.1978 53.4573 42.4991 53.7586C42.8005 54.06 43.2092 54.2293 43.6354 54.2293C44.0616 54.2293 44.4703 54.06 44.7717 53.7586C45.073 53.4573 45.2423 53.0485 45.2423 52.6224V37.0246C45.2423 36.5985 45.073 36.1897 44.7717 35.8884C44.4703 35.587 44.0616 35.4177 43.6354 35.4177" fill="white"/>
<path d="M63.8288 46.443C63.3488 45.743 62.6094 45.1446 61.6106 44.6478C60.3656 44.0686 59.057 43.6374 57.7116 43.363C56.1047 43.002 54.9952 42.6255 54.3833 42.2335C54.0868 42.0497 53.845 41.7898 53.6829 41.481C53.5208 41.1721 53.4443 40.8255 53.4614 40.4771C53.453 40.0891 53.5386 39.7048 53.7109 39.357C53.8833 39.0093 54.1373 38.7084 54.4512 38.4801C55.1123 37.9703 56.0283 37.7155 57.1993 37.7155C58.3365 37.7155 59.2771 38.0338 60.0211 38.6703C60.3816 38.9706 60.6729 39.3453 60.875 39.7688C60.875 39.7688 60.8847 39.7843 60.8886 39.794C61.0562 40.1758 61.3662 40.4772 61.7525 40.634C62.1389 40.7908 62.5712 40.7907 62.9575 40.6337C63.3438 40.4767 63.6536 40.1752 63.8211 39.7933C63.9885 39.4114 64.0003 38.9793 63.854 38.5888C63.7958 38.4685 63.7376 38.3482 63.6697 38.2317C63.3364 37.6575 62.9033 37.1475 62.3907 36.7257C61.062 35.6208 59.3315 35.0689 57.1993 35.0702C55.1718 35.0702 53.506 35.6033 52.2019 36.6694C50.8977 37.7355 50.2495 39.0384 50.2572 40.5781C50.2355 41.4282 50.4746 42.2646 50.9423 42.9749C51.4003 43.649 52.1074 44.2312 53.0635 44.7215C54.0197 45.2119 55.3135 45.6292 56.945 45.9733C58.5675 46.3175 59.7022 46.7289 60.3491 47.2076C60.6676 47.4372 60.9239 47.7424 61.095 48.0958C61.2661 48.4492 61.3466 48.8396 61.3291 49.2318C61.3291 50.0547 60.9611 50.7126 60.2249 51.2055C59.4887 51.6985 58.5125 51.9443 57.2963 51.943C55.9753 51.943 54.9124 51.6273 54.1077 50.9959C53.5429 50.5534 53.2421 49.8722 52.9549 49.3133C52.9374 49.2784 52.918 49.2454 52.9005 49.2143C52.8617 49.1289 52.821 49.0455 52.7744 48.964C52.4464 48.3818 52.0097 48.2808 51.4683 48.2808C51.2202 48.2778 50.975 48.3335 50.7526 48.4435C50.5303 48.5534 50.3372 48.7145 50.1891 48.9135C50.041 49.1126 49.9422 49.3438 49.9008 49.5884C49.8593 49.833 49.8764 50.0839 49.9506 50.3206C49.9817 50.4021 50.0147 50.4816 50.0515 50.5612C50.1962 50.9011 50.3736 51.2261 50.5813 51.5316C51.2644 52.5114 52.2046 53.2837 53.2984 53.7634C54.5576 54.3161 55.9213 54.5902 57.2963 54.5669C59.4389 54.5669 61.1816 54.0604 62.5246 53.0473C63.1658 52.5913 63.6855 51.985 64.038 51.2816C64.3906 50.5782 64.5653 49.7991 64.5469 49.0125C64.5754 48.1043 64.3241 47.2093 63.8269 46.4488" fill="white"/>
<path d="M83.8727 44.4013C83.8727 41.401 83.1947 39.0954 81.8388 37.4846C80.4828 35.8737 78.5835 35.0703 76.1408 35.0742C74.6615 35.068 73.2134 35.4988 71.9779 36.3124C70.6813 37.1593 69.6463 38.3509 68.9892 39.7533C68.2557 41.3128 67.8892 43.0197 67.9179 44.7429V45.3251C67.9179 48.1276 68.7175 50.3665 70.3166 52.042C71.9158 53.7175 73.9859 54.554 76.527 54.5514C79.1974 54.5514 81.3025 53.6813 82.8421 51.9411C82.9473 51.8206 83.0277 51.6805 83.0786 51.5288C83.1295 51.3771 83.1499 51.2169 83.1388 51.0573C83.1276 50.8977 83.085 50.7419 83.0134 50.5989C82.9419 50.4558 82.8428 50.3282 82.7218 50.2236L82.6733 50.1828L82.5394 50.0819C82.3084 49.9039 82.0206 49.8159 81.7295 49.8345C81.4385 49.8531 81.1642 49.9769 80.9577 50.1828C80.5455 50.5898 80.0847 50.9444 79.5856 51.2386C78.7034 51.7248 77.7066 51.9648 76.6997 51.9333C75.9565 51.9534 75.2178 51.811 74.5353 51.516C73.8529 51.221 73.243 50.7806 72.7484 50.2255C71.7133 49.0882 71.1712 47.5913 71.122 45.7346H83.861L83.8727 44.4013ZM80.6588 43.0952H71.2443C71.4772 41.1868 72.1319 39.7559 73.2083 38.8023C73.6848 38.3963 74.2393 38.0922 74.8378 37.9086C75.4362 37.725 76.0659 37.6659 76.6881 37.7349C77.7121 37.8067 78.666 38.2812 79.341 39.0546C80.129 39.9525 80.5695 41.2185 80.6627 42.8526L80.6588 43.0952Z" fill="white"/>
<path opacity="0.5" d="M33.9338 24.4623C33.3714 24.787 32.7504 24.9978 32.1065 25.0826C31.4626 25.1674 30.8082 25.1245 30.1809 24.9563C29.5535 24.7882 28.9655 24.4981 28.4502 24.1026C27.935 23.7072 27.5027 23.2141 27.1781 22.6516L18.2507 7.19165C17.6738 6.01946 17.5856 4.66625 18.0055 3.42911C18.4255 2.19197 19.3191 1.172 20.4903 0.593145C22.8774 -0.588764 25.7866 0.519393 27.1179 2.82693L35.8959 18.0171C36.447 19.1391 36.5517 20.4285 36.189 21.6248C35.8262 22.8211 35.023 23.8352 33.9416 24.4623" fill="white"/>
<path opacity="0.5" d="M69.3269 24.5788C68.7601 24.906 68.1344 25.1185 67.4855 25.2039C66.8366 25.2893 66.1772 25.2461 65.545 25.0767C64.9128 24.9073 64.3202 24.615 63.8009 24.2166C63.2817 23.8181 62.846 23.3213 62.5188 22.7545L53.5196 7.17621C52.9387 5.99473 52.8504 4.63106 53.2739 3.3845C53.6974 2.13794 54.5982 1.11035 55.7786 0.527246C58.1832 -0.662426 61.1137 0.453493 62.4547 2.7785L71.2948 18.0851C71.8502 19.2155 71.9559 20.5145 71.5907 21.7198C71.2254 22.9251 70.4164 23.9469 69.3269 24.5788Z" fill="white"/>
<path opacity="0.5" d="M17.9749 23.0631C18.0331 22.9777 18.103 22.904 18.1554 22.8127L26.9683 7.51003C27.2989 6.94158 27.5141 6.31346 27.6015 5.66167C27.6889 5.00988 27.6468 4.34725 27.4777 3.71176C27.3085 3.07628 27.0155 2.48043 26.6156 1.95838C26.2157 1.43633 25.7167 0.998344 25.1472 0.669531C24.5777 0.340719 23.9488 0.127547 23.2968 0.0422327C22.6447 -0.0430812 21.9822 0.00113978 21.3473 0.172365C20.7123 0.343591 20.1174 0.638455 19.5967 1.04005C19.0759 1.44164 18.6395 1.94206 18.3126 2.51263L13.8198 10.3047L18.1476 17.8115C18.6101 18.6166 18.8383 19.535 18.8064 20.463C18.7745 21.391 18.4838 22.2916 17.9671 23.0631" fill="white"/>
<path d="M28.9304 24.6425C30.0783 25.3048 31.4422 25.4841 32.7222 25.1409C34.0022 24.7977 35.0934 23.9601 35.756 22.8124L44.7785 7.19334C45.3611 6.00911 45.4499 4.64202 45.0252 3.39239C44.6006 2.14277 43.6972 1.11283 42.5136 0.528848C40.1032 -0.664705 37.165 0.455099 35.82 2.78398L26.9567 18.1313C26.3999 19.2648 26.294 20.5674 26.6603 21.7759C27.0267 22.9845 27.838 24.009 28.9304 24.6425Z" fill="white"/>
<path d="M46.6106 24.6425C47.7584 25.3048 49.1223 25.4841 50.4024 25.1409C51.6824 24.7977 52.7736 23.9601 53.4362 22.8124L62.4586 7.19334C63.0409 6.00927 63.1297 4.64255 62.7055 3.39311C62.2812 2.14367 61.3786 1.11357 60.1957 0.528848C57.7834 -0.664705 54.8471 0.455099 53.5021 2.78398L44.6388 18.1313C44.0814 19.2645 43.9749 20.567 44.3409 21.7757C44.7069 22.9843 45.5181 24.009 46.6106 24.6425Z" fill="white"/>
<path opacity="0.5" d="M71.5026 2.33584C71.4443 2.42317 71.3726 2.49498 71.3202 2.5862L62.5053 17.8889C61.8758 19.0349 61.7204 20.382 62.0723 21.6413C62.4242 22.9005 63.2555 23.9718 64.3879 24.6255C65.5203 25.2792 66.8638 25.4632 68.1302 25.138C69.3967 24.8129 70.4854 24.0046 71.1629 22.8863L75.6538 15.0942L71.326 7.58747C70.8637 6.78225 70.6356 5.86387 70.6675 4.93593C70.6994 4.00799 70.99 3.10742 71.5065 2.33584" fill="white"/>
<path d="M87.0127 24.7087C85.8648 25.3713 84.5007 25.5509 83.2204 25.2081C81.9401 24.8653 80.8484 24.0281 80.1851 22.8806L71.1685 7.25568C70.585 6.07121 70.4955 4.70354 70.9198 3.45317C71.3442 2.2028 72.2475 1.17202 73.4314 0.58731C75.8437 -0.606243 78.7801 0.513557 80.125 2.84438L88.9903 18.1995C89.5471 19.3331 89.6526 20.6358 89.2855 21.8442C88.9184 23.0526 88.106 24.0765 87.0127 24.7087Z" fill="white"/>
<path d="M16.3642 24.6311C15.2174 25.2944 13.8543 25.4755 12.5741 25.1346C11.294 24.7936 10.2015 23.9585 9.53665 22.8126L0.512219 7.18966C-0.0711027 6.00443 -0.160008 4.6361 0.265036 3.38534C0.690081 2.13459 1.5943 1.10376 2.779 0.519351C5.1894 -0.672262 8.12767 0.445604 9.47261 2.77643L18.3359 18.1315C18.8933 19.2644 18.9997 20.5667 18.6337 21.775C18.2676 22.9833 17.4565 24.0076 16.3642 24.6408" fill="white"/>
</svg>
